# Object Export From Tinkercad Server 2015

mtllib obj.mtl

o obj_0
v 14 		0.3298 		27.8982
v 14 		0.2588 		27.8272
v 14 		3.086 		25
v 14 		3.157 		25.071
v 8.8617 		3.157 		25.071
v 8.8741 		3.086 		25
v 14 		-0.9414 		3.6577
v 10.6264 		3.086 		25
v 14 		-0.9033 		3.5657
v 6 		0.3295 		27.8985
v 8.0001 		-1.0847 		29.3127
v 8.1357 		-0.9888 		29.2168
v -3 		0.0205 		3.9484
v -6 		-2.751 		2.8004
v 12 		1.7439 		26.4841
v 10.6389 		3.157 		25.071
v 2 		0.9655 		27.1205
v 2 		1.0365 		27.1915
v -0.4999 		-0.7312 		28.9592
v -0.4999 		-0.8022 		28.8882
v 12 		1.6729 		26.4131
v 6 		-0.9035 		3.5657
v 6 		-0.9416 		3.6576
v -3 		0.9655 		27.1205
v -2.2681 		-0.6556 		3.6683
v 14 		2.791 		5.096
v 14 		2.753 		5.188
v -3 		1.0365 		27.1915
v -4.2939 		0.1217 		28.1063
v -4.2973 		0.0483 		28.0377
v -1 		2.99 		10.003
v 7 		2.99 		7.003
v 14 		2.99 		25
v -4.7181 		-0.2492 		28.3352
v -4.7218 		-0.1808 		28.4088
v -6 		-1.0846 		29.3126
v -6 		-1.1556 		29.2416
v -1.9639 		2.753 		5.188
v -6 		2.753 		5.188
v 0.3392 		-1.5139 		3.3128
v 6.016 		-0.9183 		3.5595
v 6.0397 		-0.9783 		3.6424
v 2 		0.0205 		3.9484
v -4.4497 		3 		25
v -4.4497 		2.99 		25
v 12 		0.9443 		4.3311
v 14 		2.99 		5
v 14 		3 		5
v 6.4814 		2.753 		5.188
v 14 		3 		25
v -4.4462 		3.157 		25.071
v 4.5001 		-2.2891 		2.9917
v -4.4497 		3.086 		25
v -0.0361 		2.753 		5.188
v 6.4276 		2.99 		5
v 12 		0.9063 		4.423
v 8.158 		-2.6436 		2.9526
v 8.1817 		-2.5837 		2.8697
v -4.5504 		2.99 		25
v -4.5504 		3 		25
v -4.5504 		3.086 		25
v -6 		3.157 		25.071
v -6 		3 		25
v -4.5539 		3.157 		25.071
v -6 		3.086 		25
v -6 		2.99 		25
v 0.0015 		2.99 		5
v 7.5189 		2.753 		5.188
v 4.5 		-0.8021 		28.8881
v 4.5 		-0.7311 		28.9591
v 10.6264 		3 		25
v 10.6264 		2.99 		25
v -6 		-2.7891 		2.8924
v 8.8741 		2.99 		25
v 8.8741 		3 		25
v 6 		0.2585 		27.8275
v -1.9823 		2.791 		5.096
v 9.75 		2.99 		19.998
v -6 		2.791 		5.096
v -2.0015 		3 		5
v 6.4551 		2.791 		5.096
v 8.0001 		-1.1557 		29.2417
v -0.0177 		2.791 		5.096
v -3 		-0.0176 		4.0404
v -2.0015 		2.99 		5
v -6 		3 		5
v 11.0092 		1.0432 		27.1848
v -6 		2.99 		5
v 10.9981 		0.9644 		27.1216
v -2.251 		-0.7095 		3.7537
v 6.4276 		3 		5
v 0.0015 		3 		5
v 8.1499 		-1.0498 		29.1358
v 0.3221 		-1.5678 		3.3982
v 2 		-0.0176 		4.0404
v 7.5452 		2.791 		5.096
v 4.5001 		-2.3272 		3.0837
v 7.5727 		2.99 		5
v 7.5727 		3 		5
v 7 		3 		7.003
v -1 		3 		10.003
v -4.5 		3 		23.998
v -4.5 		2.99 		23.998
v 9.75 		3 		19.998
# 104 vertices

g group_0_16777215

usemtl color_16777215
s 0

f 1 	2 	4
f 3 	4 	2
f 11 	12 	10
f 12 	5 	10
f 8 	16 	3
f 4 	3 	16
f 16 	87 	15
f 1 	4 	15
f 17 	18 	19
f 17 	19 	20
f 2 	1 	15
f 2 	15 	21
f 27 	7 	26
f 9 	26 	7
f 24 	28 	29
f 24 	29 	30
f 25 	13 	77
f 89 	87 	8
f 16 	15 	4
f 36 	37 	35
f 34 	35 	37
f 51 	53 	29
f 40 	83 	43
f 41 	42 	23
f 41 	23 	22
f 19 	28 	24
f 19 	24 	20
f 32 	78 	31
f 48 	50 	47
f 33 	47 	50
f 30 	29 	53
f 52 	43 	22
f 83 	81 	43
f 57 	58 	56
f 46 	56 	58
f 59 	60 	63
f 59 	63 	66
f 31 	67 	55
f 35 	34 	64
f 61 	64 	34
f 42 	41 	49
f 81 	49 	41
f 45 	75 	44
f 37 	36 	62
f 37 	62 	65
f 69 	70 	18
f 69 	18 	17
f 50 	71 	72
f 50 	72 	33
f 74 	75 	45
f 55 	32 	31
f 37 	65 	34
f 39 	79 	73
f 9 	7 	56
f 9 	56 	46
f 76 	10 	69
f 70 	69 	10
f 77 	13 	79
f 79 	13 	14
f 81 	41 	22
f 22 	43 	81
f 72 	78 	33
f 20 	24 	17
f 24 	53 	17
f 30 	53 	24
f 6 	17 	53
f 14 	73 	79
f 82 	11 	10
f 82 	10 	76
f 61 	34 	65
f 84 	39 	73
f 80 	85 	86
f 6 	76 	17
f 63 	86 	88
f 63 	88 	66
f 33 	78 	47
f 86 	85 	88
f 87 	89 	21
f 87 	21 	15
f 51 	29 	28
f 69 	17 	76
f 90 	38 	84
f 91 	55 	67
f 91 	67 	92
f 82 	93 	12
f 82 	12 	11
f 39 	84 	38
f 9 	46 	26
f 36 	35 	62
f 54 	94 	95
f 98 	47 	32
f 78 	74 	103
f 45 	103 	74
f 16 	8 	87
f 96 	46 	58
f 26 	46 	96
f 94 	40 	95
f 43 	95 	40
f 82 	76 	93
f 6 	93 	76
f 47 	98 	48
f 97 	23 	95
f 23 	49 	95
f 79 	39 	77
f 38 	77 	39
f 48 	98 	99
f 18 	51 	28
f 19 	18 	28
f 73 	14 	84
f 13 	84 	14
f 93 	6 	5
f 93 	5 	12
f 78 	32 	47
f 83 	54 	81
f 49 	81 	54
f 89 	8 	21
f 8 	3 	21
f 62 	35 	64
f 95 	49 	54
f 25 	90 	84
f 25 	84 	13
f 27 	26 	96
f 27 	96 	68
f 55 	91 	32
f 100 	32 	91
f 2 	21 	3
f 70 	10 	18
f 51 	18 	5
f 42 	49 	23
f 80 	86 	101
f 86 	102 	101
f 44 	75 	102
f 5 	18 	10
f 80 	101 	85
f 31 	85 	101
f 102 	103 	45
f 102 	45 	44
f 86 	63 	102
f 60 	102 	63
f 60 	59 	103
f 60 	103 	102
f 92 	101 	91
f 100 	91 	101
f 101 	102 	104
f 75 	104 	102
f 56 	68 	57
f 92 	67 	31
f 92 	31 	101
f 90 	25 	38
f 77 	38 	25
f 7 	27 	56
f 51 	5 	53
f 68 	56 	27
f 50 	48 	104
f 50 	104 	71
f 64 	61 	65
f 64 	65 	62
f 83 	40 	54
f 94 	54 	40
f 99 	100 	48
f 104 	48 	100
f 100 	101 	104
f 32 	100 	98
f 99 	98 	100
f 6 	53 	5
f 52 	97 	95
f 52 	95 	43
f 104 	78 	72
f 104 	72 	71
f 75 	74 	78
f 75 	78 	104
f 23 	97 	52
f 23 	52 	22
f 96 	58 	68
f 57 	68 	58
f 103 	88 	31
f 31 	78 	103
f 66 	88 	103
f 66 	103 	59
f 85 	31 	88
# 180 faces

 #end of obj_0

