# Object Export From Tinkercad Server 2015

mtllib obj.mtl

o obj_0
v -5 		5.493 		10.761
v 3.09 		11.371 		10.761
v -5 		14 		16.018
v -10 		20.882 		10.761
v -13.09 		11.371 		10.761
v 0 		20.882 		10.761
v -5 		18.8595 		0
v -9.6213 		15.5018 		0
v -13.09 		16.629 		2.254
v -5 		22.507 		2.254
v 0 		7.118 		2.254
v 3.09 		16.629 		2.254
v -0.3787 		15.5018 		0
v -10 		7.118 		2.254
v -7.8562 		10.0687 		0
v -2.1438 		10.0687 		0
# 16 vertices

g group_0_15277357

usemtl color_15277357
s 0

f 1 	2 	3
f 4 	5 	3
f 5 	1 	3
f 7 	8 	9
f 7 	9 	10
f 13 	7 	12
f 10 	12 	7
f 5 	9 	14
f 6 	4 	3
f 4 	6 	10
f 2 	6 	3
f 6 	12 	10
f 11 	14 	15
f 11 	15 	16
f 6 	2 	12
f 8 	15 	9
f 14 	9 	15
f 14 	1 	5
f 12 	11 	16
f 12 	16 	13
f 8 	7 	13
f 8 	13 	16
f 8 	16 	15
f 2 	11 	12
f 5 	4 	9
f 2 	1 	11
f 4 	10 	9
f 1 	14 	11
# 28 faces

 #end of obj_0

o obj_1
v -11.2688 		7.6328 		4.003
v -9.4185 		6.3534 		4.003
v -6.1527 		5.3435 		8.998
v -13.2875 		10.2768 		8.998
v -14 		12.3635 		8.998
v -14 		15.6317 		4.003
v -11.2745 		20.3458 		8.998
v -13.2932 		17.7018 		4.003
v -9.4093 		21.6355 		8.998
v -6.1435 		22.6454 		4.003
v -0.5907 		21.6355 		8.998
v -3.8565 		22.6454 		4.003
v 1.2745 		20.3458 		8.998
v 3.2932 		17.7018 		4.003
v 4 		12.3635 		8.998
v 4 		15.6317 		4.003
v 3.2875 		10.2768 		8.998
v 1.2688 		7.6328 		4.003
v -3.8473 		5.3435 		8.998
v -0.5815 		6.3534 		4.003
# 20 vertices

g group_1_16448250

usemtl color_16448250
s 0

f 19 	20 	18
f 17 	18 	20
f 20 	21 	22
f 20 	22 	17
f 21 	23 	24
f 21 	24 	22
f 26 	24 	25
f 23 	25 	24
f 25 	27 	28
f 25 	28 	26
f 27 	29 	30
f 27 	30 	28
f 32 	30 	31
f 29 	31 	30
f 34 	32 	33
f 31 	33 	32
f 33 	35 	36
f 33 	36 	34
f 35 	19 	18
f 35 	18 	36
f 22 	24 	17
f 24 	26 	17
f 18 	17 	26
f 18 	26 	28
f 18 	28 	30
f 18 	30 	32
f 34 	36 	32
f 18 	32 	36
f 31 	29 	27
f 31 	27 	25
f 31 	25 	23
f 31 	23 	21
f 31 	21 	20
f 31 	20 	19
f 31 	19 	35
f 31 	35 	33
# 36 faces

 #end of obj_1

o obj_2
v -4.5 		5.6642 		4.2421
v -4.5 		4.8442 		8.6668
v -4.5 		6.1558 		4.3332
v -4.5 		5.3358 		8.7579
v -5.5 		4.8442 		8.6668
v -5.5 		5.6642 		4.2421
v -5.5 		5.3358 		8.7579
v -5.5 		6.1558 		4.3332
# 8 vertices

g group_2_15277357

usemtl color_15277357
s 0

f 37 	39 	38
f 39 	40 	38
f 41 	43 	42
f 43 	44 	42
f 41 	42 	38
f 42 	37 	38
f 44 	43 	39
f 43 	40 	39
f 42 	44 	37
f 44 	39 	37
f 38 	40 	41
f 40 	43 	41
# 12 faces

 #end of obj_2

o obj_3
v -3 		5.3186 		6.914
v -3 		5 		7.7684
v -3 		5.8538 		6.7684
v -3 		5.5352 		7.6229
v -7 		5 		7.7684
v -7 		5.3186 		6.914
v -7 		5.5352 		7.6229
v -7 		5.8538 		6.7684
# 8 vertices

g group_3_15277357

usemtl color_15277357
s 0

f 45 	47 	46
f 47 	48 	46
f 49 	51 	50
f 51 	52 	50
f 49 	50 	46
f 50 	45 	46
f 52 	51 	47
f 51 	48 	47
f 50 	52 	45
f 52 	47 	45
f 46 	48 	49
f 48 	51 	49
# 12 faces

 #end of obj_3

o obj_4
v -4 		12.2679 		12
v -5 		12 		12
v -5 		14 		12
v -3.2679 		13 		12
v -3 		14 		12
v -3.2679 		15 		12
v -4 		15.7321 		12
v -5 		16 		12
v -6 		15.7321 		12
v -6.7321 		15 		12
v -7 		14 		12
v -6.7321 		13 		12
v -6 		12.2679 		12
v -5 		12 		17
v -4 		12.2679 		17
v -5 		14 		17
v -3.2679 		13 		17
v -3 		14 		17
v -3.2679 		15 		17
v -4 		15.7321 		17
v -5 		16 		17
v -6 		15.7321 		17
v -6.7321 		15 		17
v -7 		14 		17
v -6.7321 		13 		17
v -6 		12.2679 		17
# 26 vertices

g group_4_16089887

usemtl color_16089887
s 0

f 53 	54 	55
f 56 	53 	55
f 57 	56 	55
f 58 	57 	55
f 59 	58 	55
f 60 	59 	55
f 61 	60 	55
f 62 	61 	55
f 63 	62 	55
f 64 	63 	55
f 65 	64 	55
f 54 	65 	55
f 66 	67 	68
f 67 	69 	68
f 69 	70 	68
f 70 	71 	68
f 71 	72 	68
f 72 	73 	68
f 73 	74 	68
f 74 	75 	68
f 75 	76 	68
f 76 	77 	68
f 77 	78 	68
f 78 	66 	68
f 54 	53 	53
f 53 	56 	56
f 56 	57 	57
f 57 	58 	58
f 58 	59 	59
f 59 	60 	60
f 60 	61 	61
f 61 	62 	62
f 62 	63 	63
f 63 	64 	64
f 64 	65 	65
f 65 	54 	54
f 54 	53 	67
f 54 	67 	66
f 53 	56 	69
f 53 	69 	67
f 56 	57 	70
f 56 	70 	69
f 57 	58 	71
f 57 	71 	70
f 58 	59 	72
f 58 	72 	71
f 59 	60 	73
f 59 	73 	72
f 60 	61 	74
f 60 	74 	73
f 61 	62 	75
f 61 	75 	74
f 62 	63 	76
f 62 	76 	75
f 63 	64 	77
f 63 	77 	76
f 64 	65 	78
f 64 	78 	77
f 65 	54 	66
f 65 	66 	78
f 66 	67 	67
f 67 	69 	69
f 69 	70 	70
f 70 	71 	71
f 71 	72 	72
f 72 	73 	73
f 73 	74 	74
f 74 	75 	75
f 75 	76 	76
f 76 	77 	77
f 77 	78 	78
f 78 	66 	66
# 72 faces

 #end of obj_4

o obj_5
v -3.5 		11.4019 		16
v -5 		11 		16
v -5 		14 		16
v -2.4019 		12.5 		16
v -2 		14 		16
v -2.4019 		15.5 		16
v -3.5 		16.5981 		16
v -5 		17 		16
v -6.5 		16.5981 		16
v -7.5981 		15.5 		16
v -8 		14 		16
v -7.5981 		12.5 		16
v -6.5 		11.4019 		16
v -5 		11 		18
v -3.5 		11.4019 		18
v -5 		14 		18
v -2.4019 		12.5 		18
v -2 		14 		18
v -2.4019 		15.5 		18
v -3.5 		16.5981 		18
v -5 		17 		18
v -6.5 		16.5981 		18
v -7.5981 		15.5 		18
v -8 		14 		18
v -7.5981 		12.5 		18
v -6.5 		11.4019 		18
# 26 vertices

g group_5_16089887

usemtl color_16089887
s 0

f 79 	80 	81
f 82 	79 	81
f 83 	82 	81
f 84 	83 	81
f 85 	84 	81
f 86 	85 	81
f 87 	86 	81
f 88 	87 	81
f 89 	88 	81
f 90 	89 	81
f 91 	90 	81
f 80 	91 	81
f 92 	93 	94
f 93 	95 	94
f 95 	96 	94
f 96 	97 	94
f 97 	98 	94
f 98 	99 	94
f 99 	100 	94
f 100 	101 	94
f 101 	102 	94
f 102 	103 	94
f 103 	104 	94
f 104 	92 	94
f 80 	79 	79
f 79 	82 	82
f 82 	83 	83
f 83 	84 	84
f 84 	85 	85
f 85 	86 	86
f 86 	87 	87
f 87 	88 	88
f 88 	89 	89
f 89 	90 	90
f 90 	91 	91
f 91 	80 	80
f 80 	79 	93
f 80 	93 	92
f 79 	82 	95
f 79 	95 	93
f 82 	83 	96
f 82 	96 	95
f 83 	84 	97
f 83 	97 	96
f 84 	85 	98
f 84 	98 	97
f 85 	86 	99
f 85 	99 	98
f 86 	87 	100
f 86 	100 	99
f 87 	88 	101
f 87 	101 	100
f 88 	89 	102
f 88 	102 	101
f 89 	90 	103
f 89 	103 	102
f 90 	91 	104
f 90 	104 	103
f 91 	80 	92
f 91 	92 	104
f 92 	93 	93
f 93 	95 	95
f 95 	96 	96
f 96 	97 	97
f 97 	98 	98
f 98 	99 	99
f 99 	100 	100
f 100 	101 	101
f 101 	102 	102
f 102 	103 	103
f 103 	104 	104
f 104 	92 	92
# 72 faces

 #end of obj_5

